<?xml version="1.0" encoding="iso-8859-1"?>
<!-- Uploaded to: SVG Repo, www.svgrepo.com, Generator: SVG Repo Mixer Tools -->
<svg height="800px" width="800px" version="1.1" id="Layer_1" xmlns="http://www.w3.org/2000/svg" xmlns:xlink="http://www.w3.org/1999/xlink" 
	 viewBox="0 0 512 512" xml:space="preserve">
<path style="fill:#FFD15C;" d="M122.565,284.051h169.288c30.772,0,55.529,25.314,54.686,56.229
	c-0.457,16.668-8.682,31.568-21.158,41.327h20.25l76.753-64.403c23.574-19.782,58.816-16.3,78.034,7.924
	c18.235,22.982,14.531,57.233-8.253,76.349l-100.964,84.714c-9.588,8.044-21.762,12.475-34.277,12.475H202.878
	c-12.515,0-24.688-4.43-34.276-12.475l-59.184-49.654c-4.632-3.886-7.307-9.623-7.307-15.67V304.506
	C102.11,293.209,111.268,284.051,122.565,284.051z"/>
<g>
	<path style="fill:#F8B64C;" d="M500.419,325.128c-19.218-24.223-54.461-27.705-78.034-7.924l-76.753,64.403h-20.249
		c12.476-9.759,20.7-24.659,21.158-41.327c0.843-30.915-23.915-56.229-54.686-56.229H260.36v214.615h96.564
		c12.515,0,24.689-4.431,34.277-12.475l100.964-84.714C514.95,382.361,518.654,348.11,500.419,325.128z"/>
	<path style="fill:#F8B64C;" d="M233.301,360.721c0-11.296,9.158-20.454,20.454-20.454h92.784c0,0.005,0,0.009,0,0.014
		c-0.451,16.43-8.457,31.132-20.635,40.896h-72.149C242.458,381.175,233.301,372.017,233.301,360.721z"/>
</g>
<path style="fill:#169ED9;" d="M20.454,252.155h102.11c11.296,0,20.454,9.158,20.454,20.454v210.405
	c0,11.296-9.158,20.454-20.454,20.454H20.454C9.158,503.467,0,494.31,0,483.013V272.609C0,261.312,9.158,252.155,20.454,252.155z"/>
<path style="fill:#F59D00;" d="M260.36,340.266v40.909h65.544c12.178-9.764,20.185-24.466,20.635-40.896c0-0.005,0-0.009,0-0.014
	L260.36,340.266L260.36,340.266z"/>
<path style="fill:#FF7058;" d="M321.354,252.567L260.36,220.5l-60.994,32.066c-12.433,6.537-27.013-4.053-24.637-17.9l11.649-67.919
	l-49.346-48.101c-10.057-9.803-4.496-26.942,9.41-28.962l68.194-9.908l30.497-61.795c6.216-12.595,24.234-12.601,30.453,0
	l30.497,61.795l68.194,9.908c13.899,2.021,19.474,19.153,9.41,28.962l-49.346,48.101l11.649,67.919
	C348.385,248.622,333.685,259.05,321.354,252.567z"/>
<path style="fill:#F1543F;" d="M374.278,89.685l-68.194-9.908l-30.497-61.795c-3.11-6.3-9.168-9.449-15.227-9.449V220.5
	l60.994,32.066c12.331,6.484,27.031-3.944,24.637-17.9l-11.649-67.919l49.346-48.101C393.753,108.838,388.176,91.705,374.278,89.685
	z"/>
</svg>